<mxfile host="app.diagrams.net" agent="Mozilla/5.0 (Macintosh; Intel Mac OS X 10_15_7) AppleWebKit/605.1.15 (KHTML, like Gecko) Version/18.3.1 Safari/605.1.15" version="26.2.14">
  <diagram name="Page-1" id="PjhcFACJdEIic_qAXxCv">
    <mxGraphModel grid="1" page="1" gridSize="10" guides="1" tooltips="1" connect="1" arrows="1" fold="1" pageScale="1" pageWidth="850" pageHeight="1100" math="0" shadow="0">
      <root>
        <mxCell id="0" />
        <mxCell id="1" parent="0" />
        <mxCell id="AYNbDVqfL4J3k584-Y50-1" value="Unit" style="swimlane;fontStyle=1;align=center;verticalAlign=top;childLayout=stackLayout;horizontal=1;startSize=45.333333333333336;horizontalStack=0;resizeParent=1;resizeParentMax=0;resizeLast=0;collapsible=0;marginBottom=0;fillColor=#6a00ff;fontColor=#ffffff;strokeColor=#3700CC;" vertex="1" parent="1">
          <mxGeometry x="765" y="20" width="223" height="143.33333333333334" as="geometry" />
        </mxCell>
        <mxCell id="AYNbDVqfL4J3k584-Y50-2" value="- float hitpoints" style="text;strokeColor=none;fillColor=none;align=left;verticalAlign=top;spacingLeft=4;spacingRight=4;overflow=hidden;rotatable=0;points=[[0,0.5],[1,0.5]];portConstraint=eastwest;" vertex="1" parent="AYNbDVqfL4J3k584-Y50-1">
          <mxGeometry y="45.333333333333336" width="223" height="45" as="geometry" />
        </mxCell>
        <mxCell id="AYNbDVqfL4J3k584-Y50-3" style="line;strokeWidth=1;fillColor=none;align=left;verticalAlign=middle;spacingTop=-1;spacingLeft=3;spacingRight=3;rotatable=0;labelPosition=right;points=[];portConstraint=eastwest;strokeColor=inherit;" vertex="1" parent="AYNbDVqfL4J3k584-Y50-1">
          <mxGeometry y="90.33333333333334" width="223" height="8" as="geometry" />
        </mxCell>
        <mxCell id="AYNbDVqfL4J3k584-Y50-4" value="+ TakeDamage(float dmg)" style="text;strokeColor=none;fillColor=none;align=left;verticalAlign=top;spacingLeft=4;spacingRight=4;overflow=hidden;rotatable=0;points=[[0,0.5],[1,0.5]];portConstraint=eastwest;" vertex="1" parent="AYNbDVqfL4J3k584-Y50-1">
          <mxGeometry y="98.33333333333334" width="223" height="45" as="geometry" />
        </mxCell>
        <mxCell id="AYNbDVqfL4J3k584-Y50-5" value="IMoveable" style="swimlane;fontStyle=1;align=center;verticalAlign=top;childLayout=stackLayout;horizontal=1;startSize=47.2;horizontalStack=0;resizeParent=1;resizeParentMax=0;resizeLast=0;collapsible=0;marginBottom=0;fillColor=#6a00ff;fontColor=#ffffff;strokeColor=#3700CC;" vertex="1" parent="1">
          <mxGeometry x="54" y="29" width="255" height="102.2" as="geometry" />
        </mxCell>
        <mxCell id="AYNbDVqfL4J3k584-Y50-6" style="line;strokeWidth=1;fillColor=none;align=left;verticalAlign=middle;spacingTop=-1;spacingLeft=3;spacingRight=3;rotatable=0;labelPosition=right;points=[];portConstraint=eastwest;strokeColor=inherit;" vertex="1" parent="AYNbDVqfL4J3k584-Y50-5">
          <mxGeometry y="47.2" width="255" height="8" as="geometry" />
        </mxCell>
        <mxCell id="AYNbDVqfL4J3k584-Y50-7" value="+ MoveTo(Vector3 position)" style="text;strokeColor=none;fillColor=none;align=left;verticalAlign=top;spacingLeft=4;spacingRight=4;overflow=hidden;rotatable=0;points=[[0,0.5],[1,0.5]];portConstraint=eastwest;" vertex="1" parent="AYNbDVqfL4J3k584-Y50-5">
          <mxGeometry y="55.2" width="255" height="47" as="geometry" />
        </mxCell>
        <mxCell id="AYNbDVqfL4J3k584-Y50-8" value="StrikerBike" style="swimlane;fontStyle=1;align=center;verticalAlign=top;childLayout=stackLayout;horizontal=1;startSize=32;horizontalStack=0;resizeParent=1;resizeParentMax=0;resizeLast=0;collapsible=0;marginBottom=0;fillColor=#6a00ff;fontColor=#ffffff;strokeColor=#3700CC;" vertex="1" parent="1">
          <mxGeometry x="20" y="214" width="343" height="208" as="geometry" />
        </mxCell>
        <mxCell id="AYNbDVqfL4J3k584-Y50-9" value="- float speed = Fast" style="text;strokeColor=none;fillColor=none;align=left;verticalAlign=top;spacingLeft=4;spacingRight=4;overflow=hidden;rotatable=0;points=[[0,0.5],[1,0.5]];portConstraint=eastwest;" vertex="1" parent="AYNbDVqfL4J3k584-Y50-8">
          <mxGeometry y="32" width="343" height="32" as="geometry" />
        </mxCell>
        <mxCell id="AYNbDVqfL4J3k584-Y50-10" value="- string weapon = &quot;Short Range Missile&quot;" style="text;strokeColor=none;fillColor=none;align=left;verticalAlign=top;spacingLeft=4;spacingRight=4;overflow=hidden;rotatable=0;points=[[0,0.5],[1,0.5]];portConstraint=eastwest;" vertex="1" parent="AYNbDVqfL4J3k584-Y50-8">
          <mxGeometry y="64" width="343" height="32" as="geometry" />
        </mxCell>
        <mxCell id="AYNbDVqfL4J3k584-Y50-11" value="- float damage = 5" style="text;strokeColor=none;fillColor=none;align=left;verticalAlign=top;spacingLeft=4;spacingRight=4;overflow=hidden;rotatable=0;points=[[0,0.5],[1,0.5]];portConstraint=eastwest;" vertex="1" parent="AYNbDVqfL4J3k584-Y50-8">
          <mxGeometry y="96" width="343" height="32" as="geometry" />
        </mxCell>
        <mxCell id="AYNbDVqfL4J3k584-Y50-12" value="- float range = 10" style="text;strokeColor=none;fillColor=none;align=left;verticalAlign=top;spacingLeft=4;spacingRight=4;overflow=hidden;rotatable=0;points=[[0,0.5],[1,0.5]];portConstraint=eastwest;" vertex="1" parent="AYNbDVqfL4J3k584-Y50-8">
          <mxGeometry y="128" width="343" height="32" as="geometry" />
        </mxCell>
        <mxCell id="AYNbDVqfL4J3k584-Y50-13" value="- float fireRate = 0.5" style="text;strokeColor=none;fillColor=none;align=left;verticalAlign=top;spacingLeft=4;spacingRight=4;overflow=hidden;rotatable=0;points=[[0,0.5],[1,0.5]];portConstraint=eastwest;" vertex="1" parent="AYNbDVqfL4J3k584-Y50-8">
          <mxGeometry y="160" width="343" height="32" as="geometry" />
        </mxCell>
        <mxCell id="AYNbDVqfL4J3k584-Y50-14" style="line;strokeWidth=1;fillColor=none;align=left;verticalAlign=middle;spacingTop=-1;spacingLeft=3;spacingRight=3;rotatable=0;labelPosition=right;points=[];portConstraint=eastwest;strokeColor=inherit;" vertex="1" parent="AYNbDVqfL4J3k584-Y50-8">
          <mxGeometry y="192" width="343" height="16" as="geometry" />
        </mxCell>
        <mxCell id="AYNbDVqfL4J3k584-Y50-15" value="HeavyTank" style="swimlane;fontStyle=1;align=center;verticalAlign=top;childLayout=stackLayout;horizontal=1;startSize=32;horizontalStack=0;resizeParent=1;resizeParentMax=0;resizeLast=0;collapsible=0;marginBottom=0;fillColor=#6a00ff;fontColor=#ffffff;strokeColor=#3700CC;" vertex="1" parent="1">
          <mxGeometry x="423" y="214" width="365" height="208" as="geometry" />
        </mxCell>
        <mxCell id="AYNbDVqfL4J3k584-Y50-16" value="- float speed = Slow" style="text;strokeColor=none;fillColor=none;align=left;verticalAlign=top;spacingLeft=4;spacingRight=4;overflow=hidden;rotatable=0;points=[[0,0.5],[1,0.5]];portConstraint=eastwest;" vertex="1" parent="AYNbDVqfL4J3k584-Y50-15">
          <mxGeometry y="32" width="365" height="32" as="geometry" />
        </mxCell>
        <mxCell id="AYNbDVqfL4J3k584-Y50-17" value="- string weapon = &quot;Medium Range Cannon&quot;" style="text;strokeColor=none;fillColor=none;align=left;verticalAlign=top;spacingLeft=4;spacingRight=4;overflow=hidden;rotatable=0;points=[[0,0.5],[1,0.5]];portConstraint=eastwest;" vertex="1" parent="AYNbDVqfL4J3k584-Y50-15">
          <mxGeometry y="64" width="365" height="32" as="geometry" />
        </mxCell>
        <mxCell id="AYNbDVqfL4J3k584-Y50-18" value="- float damage = 20" style="text;strokeColor=none;fillColor=none;align=left;verticalAlign=top;spacingLeft=4;spacingRight=4;overflow=hidden;rotatable=0;points=[[0,0.5],[1,0.5]];portConstraint=eastwest;" vertex="1" parent="AYNbDVqfL4J3k584-Y50-15">
          <mxGeometry y="96" width="365" height="32" as="geometry" />
        </mxCell>
        <mxCell id="AYNbDVqfL4J3k584-Y50-19" value="- float range = 30" style="text;strokeColor=none;fillColor=none;align=left;verticalAlign=top;spacingLeft=4;spacingRight=4;overflow=hidden;rotatable=0;points=[[0,0.5],[1,0.5]];portConstraint=eastwest;" vertex="1" parent="AYNbDVqfL4J3k584-Y50-15">
          <mxGeometry y="128" width="365" height="32" as="geometry" />
        </mxCell>
        <mxCell id="AYNbDVqfL4J3k584-Y50-20" value="- float fireRate = 1.5" style="text;strokeColor=none;fillColor=none;align=left;verticalAlign=top;spacingLeft=4;spacingRight=4;overflow=hidden;rotatable=0;points=[[0,0.5],[1,0.5]];portConstraint=eastwest;" vertex="1" parent="AYNbDVqfL4J3k584-Y50-15">
          <mxGeometry y="160" width="365" height="32" as="geometry" />
        </mxCell>
        <mxCell id="AYNbDVqfL4J3k584-Y50-21" style="line;strokeWidth=1;fillColor=none;align=left;verticalAlign=middle;spacingTop=-1;spacingLeft=3;spacingRight=3;rotatable=0;labelPosition=right;points=[];portConstraint=eastwest;strokeColor=inherit;" vertex="1" parent="AYNbDVqfL4J3k584-Y50-15">
          <mxGeometry y="192" width="365" height="16" as="geometry" />
        </mxCell>
        <mxCell id="AYNbDVqfL4J3k584-Y50-22" value="IAttackable" style="swimlane;fontStyle=1;align=center;verticalAlign=top;childLayout=stackLayout;horizontal=1;startSize=47.2;horizontalStack=0;resizeParent=1;resizeParentMax=0;resizeLast=0;collapsible=0;marginBottom=0;fillColor=#6a00ff;fontColor=#ffffff;strokeColor=#3700CC;" vertex="1" parent="1">
          <mxGeometry x="394" y="29" width="231" height="102.2" as="geometry" />
        </mxCell>
        <mxCell id="AYNbDVqfL4J3k584-Y50-23" style="line;strokeWidth=1;fillColor=none;align=left;verticalAlign=middle;spacingTop=-1;spacingLeft=3;spacingRight=3;rotatable=0;labelPosition=right;points=[];portConstraint=eastwest;strokeColor=inherit;" vertex="1" parent="AYNbDVqfL4J3k584-Y50-22">
          <mxGeometry y="47.2" width="231" height="8" as="geometry" />
        </mxCell>
        <mxCell id="AYNbDVqfL4J3k584-Y50-24" value="+ Attack(Target target)" style="text;strokeColor=none;fillColor=none;align=left;verticalAlign=top;spacingLeft=4;spacingRight=4;overflow=hidden;rotatable=0;points=[[0,0.5],[1,0.5]];portConstraint=eastwest;" vertex="1" parent="AYNbDVqfL4J3k584-Y50-22">
          <mxGeometry y="55.2" width="231" height="47" as="geometry" />
        </mxCell>
        <mxCell id="AYNbDVqfL4J3k584-Y50-25" value="EnemyBuilding" style="swimlane;fontStyle=1;align=center;verticalAlign=top;childLayout=stackLayout;horizontal=1;startSize=44.8;horizontalStack=0;resizeParent=1;resizeParentMax=0;resizeLast=0;collapsible=0;marginBottom=0;fillColor=#6a00ff;fontColor=#ffffff;strokeColor=#3700CC;" vertex="1" parent="1">
          <mxGeometry x="838" y="262" width="235" height="111.8" as="geometry" />
        </mxCell>
        <mxCell id="AYNbDVqfL4J3k584-Y50-26" value="- float hitpoints = 500" style="text;strokeColor=none;fillColor=none;align=left;verticalAlign=top;spacingLeft=4;spacingRight=4;overflow=hidden;rotatable=0;points=[[0,0.5],[1,0.5]];portConstraint=eastwest;" vertex="1" parent="AYNbDVqfL4J3k584-Y50-25">
          <mxGeometry y="44.8" width="235" height="45" as="geometry" />
        </mxCell>
        <mxCell id="AYNbDVqfL4J3k584-Y50-27" style="line;strokeWidth=1;fillColor=none;align=left;verticalAlign=middle;spacingTop=-1;spacingLeft=3;spacingRight=3;rotatable=0;labelPosition=right;points=[];portConstraint=eastwest;strokeColor=inherit;" vertex="1" parent="AYNbDVqfL4J3k584-Y50-25">
          <mxGeometry y="89.8" width="235" height="22" as="geometry" />
        </mxCell>
        <mxCell id="AYNbDVqfL4J3k584-Y50-28" value="" style="curved=1;dashed=1;startArrow=block;startSize=16;startFill=0;endArrow=none;exitX=0.5;exitY=1;entryX=0.48;entryY=0;rounded=0;fillColor=#6a00ff;strokeColor=#3700CC;" edge="1" parent="1" source="AYNbDVqfL4J3k584-Y50-5" target="AYNbDVqfL4J3k584-Y50-8">
          <mxGeometry relative="1" as="geometry">
            <Array as="points">
              <mxPoint x="181" y="189" />
            </Array>
          </mxGeometry>
        </mxCell>
        <mxCell id="AYNbDVqfL4J3k584-Y50-29" value="" style="curved=1;dashed=1;startArrow=block;startSize=16;startFill=0;endArrow=none;exitX=1;exitY=0.92;entryX=0.07;entryY=0;rounded=0;fillColor=#6a00ff;strokeColor=#3700CC;" edge="1" parent="1" source="AYNbDVqfL4J3k584-Y50-5" target="AYNbDVqfL4J3k584-Y50-15">
          <mxGeometry relative="1" as="geometry">
            <Array as="points">
              <mxPoint x="413" y="189" />
            </Array>
          </mxGeometry>
        </mxCell>
        <mxCell id="AYNbDVqfL4J3k584-Y50-30" value="" style="curved=1;dashed=1;startArrow=block;startSize=16;startFill=0;endArrow=none;exitX=0.02;exitY=1;entryX=0.85;entryY=0;rounded=0;fillColor=#6a00ff;strokeColor=#3700CC;" edge="1" parent="1" source="AYNbDVqfL4J3k584-Y50-22" target="AYNbDVqfL4J3k584-Y50-8">
          <mxGeometry relative="1" as="geometry">
            <Array as="points">
              <mxPoint x="338" y="189" />
            </Array>
          </mxGeometry>
        </mxCell>
        <mxCell id="AYNbDVqfL4J3k584-Y50-31" value="" style="curved=1;dashed=1;startArrow=block;startSize=16;startFill=0;endArrow=none;exitX=1;exitY=0.88;entryX=0.8;entryY=0;rounded=0;fillColor=#6a00ff;strokeColor=#3700CC;" edge="1" parent="1" source="AYNbDVqfL4J3k584-Y50-22" target="AYNbDVqfL4J3k584-Y50-15">
          <mxGeometry relative="1" as="geometry">
            <Array as="points">
              <mxPoint x="742" y="189" />
            </Array>
          </mxGeometry>
        </mxCell>
        <mxCell id="AYNbDVqfL4J3k584-Y50-32" value="" style="curved=1;startArrow=block;startSize=16;startFill=0;endArrow=none;exitX=0;exitY=0.66;entryX=0.98;entryY=0;rounded=0;fillColor=#6a00ff;strokeColor=#3700CC;" edge="1" parent="1" source="AYNbDVqfL4J3k584-Y50-1" target="AYNbDVqfL4J3k584-Y50-8">
          <mxGeometry relative="1" as="geometry">
            <Array as="points">
              <mxPoint x="393" y="189" />
            </Array>
          </mxGeometry>
        </mxCell>
        <mxCell id="AYNbDVqfL4J3k584-Y50-33" value="" style="curved=1;startArrow=block;startSize=16;startFill=0;endArrow=none;exitX=0.15;exitY=1;entryX=0.87;entryY=0;rounded=0;fillColor=#6a00ff;strokeColor=#3700CC;" edge="1" parent="1" source="AYNbDVqfL4J3k584-Y50-1" target="AYNbDVqfL4J3k584-Y50-15">
          <mxGeometry relative="1" as="geometry">
            <Array as="points">
              <mxPoint x="770" y="189" />
            </Array>
          </mxGeometry>
        </mxCell>
        <mxCell id="AYNbDVqfL4J3k584-Y50-34" value="" style="curved=1;startArrow=block;startSize=16;startFill=0;endArrow=none;exitX=0.76;exitY=1;entryX=0.5;entryY=0;rounded=0;fillColor=#6a00ff;strokeColor=#3700CC;" edge="1" parent="1" source="AYNbDVqfL4J3k584-Y50-1" target="AYNbDVqfL4J3k584-Y50-25">
          <mxGeometry relative="1" as="geometry">
            <Array as="points">
              <mxPoint x="955" y="189" />
            </Array>
          </mxGeometry>
        </mxCell>
      </root>
    </mxGraphModel>
  </diagram>
</mxfile>
